<mxfile host="app.diagrams.net" modified="2020-10-12T11:44:32.760Z" agent="5.0 (Windows NT 6.3; Win64; x64) AppleWebKit/537.36 (KHTML, like Gecko) Chrome/85.0.4183.121 Safari/537.36" etag="Vx7Hg21NnTOg_Dnms9TY" version="13.7.9" type="github">
  <diagram id="R2lEEEUBdFMjLlhIrx00" name="Page-1">
    <mxGraphModel dx="1488" dy="774" grid="1" gridSize="10" guides="1" tooltips="1" connect="1" arrows="1" fold="1" page="1" pageScale="1" pageWidth="4681" pageHeight="3300" math="0" shadow="0" extFonts="Permanent Marker^https://fonts.googleapis.com/css?family=Permanent+Marker">
      <root>
        <mxCell id="0" />
        <mxCell id="1" parent="0" />
        <mxCell id="w9EJP6OK26-klk4q5sA6-3" style="edgeStyle=orthogonalEdgeStyle;rounded=1;orthogonalLoop=1;jettySize=auto;html=1;exitX=0.5;exitY=0;exitDx=0;exitDy=0;strokeColor=none;" parent="1" source="w9EJP6OK26-klk4q5sA6-1" edge="1">
          <mxGeometry relative="1" as="geometry">
            <mxPoint x="1206" y="1559" as="targetPoint" />
          </mxGeometry>
        </mxCell>
        <mxCell id="w9EJP6OK26-klk4q5sA6-5" style="edgeStyle=orthogonalEdgeStyle;rounded=0;orthogonalLoop=1;jettySize=auto;html=1;exitX=0.5;exitY=0;exitDx=0;exitDy=0;startArrow=none;startFill=0;endArrow=none;endFill=0;strokeColor=#000000;entryX=0.5;entryY=1;entryDx=0;entryDy=0;" parent="1" source="w9EJP6OK26-klk4q5sA6-1" target="w9EJP6OK26-klk4q5sA6-6" edge="1">
          <mxGeometry relative="1" as="geometry">
            <mxPoint x="1200" y="1559" as="targetPoint" />
          </mxGeometry>
        </mxCell>
        <mxCell id="w9EJP6OK26-klk4q5sA6-45" style="edgeStyle=orthogonalEdgeStyle;rounded=0;orthogonalLoop=1;jettySize=auto;html=1;exitX=1;exitY=0.5;exitDx=0;exitDy=0;startArrow=none;startFill=0;endArrow=none;endFill=0;strokeColor=#000000;entryX=0;entryY=0.5;entryDx=0;entryDy=0;" parent="1" source="w9EJP6OK26-klk4q5sA6-1" target="w9EJP6OK26-klk4q5sA6-46" edge="1">
          <mxGeometry relative="1" as="geometry">
            <mxPoint x="1880" y="1858" as="targetPoint" />
            <Array as="points">
              <mxPoint x="1868" y="1990" />
            </Array>
          </mxGeometry>
        </mxCell>
        <mxCell id="w9EJP6OK26-klk4q5sA6-87" style="edgeStyle=elbowEdgeStyle;rounded=0;jumpSize=0;orthogonalLoop=1;jettySize=auto;html=1;exitX=0.5;exitY=1;exitDx=0;exitDy=0;entryX=0.5;entryY=0;entryDx=0;entryDy=0;startArrow=none;startFill=0;endArrow=none;endFill=0;strokeColor=#000000;strokeWidth=1;" parent="1" source="w9EJP6OK26-klk4q5sA6-1" target="w9EJP6OK26-klk4q5sA6-80" edge="1">
          <mxGeometry relative="1" as="geometry" />
        </mxCell>
        <mxCell id="w9EJP6OK26-klk4q5sA6-93" style="rounded=0;jumpSize=0;orthogonalLoop=1;jettySize=auto;html=1;exitX=1;exitY=1;exitDx=0;exitDy=0;startArrow=none;startFill=0;endArrow=none;endFill=0;strokeColor=#000000;strokeWidth=1;entryX=0;entryY=0.5;entryDx=0;entryDy=0;" parent="1" source="w9EJP6OK26-klk4q5sA6-1" target="w9EJP6OK26-klk4q5sA6-95" edge="1">
          <mxGeometry relative="1" as="geometry">
            <mxPoint x="1680" y="2320" as="targetPoint" />
          </mxGeometry>
        </mxCell>
        <mxCell id="w9EJP6OK26-klk4q5sA6-144" style="edgeStyle=elbowEdgeStyle;rounded=0;jumpStyle=arc;jumpSize=30;orthogonalLoop=1;jettySize=auto;html=1;exitX=0;exitY=0.5;exitDx=0;exitDy=0;startArrow=none;startFill=0;endArrow=none;endFill=0;strokeColor=#000000;strokeWidth=1;fontFamily=Times New Roman;fontSize=20;entryX=1;entryY=0.5;entryDx=0;entryDy=0;" parent="1" source="w9EJP6OK26-klk4q5sA6-1" target="w9EJP6OK26-klk4q5sA6-145" edge="1">
          <mxGeometry relative="1" as="geometry">
            <mxPoint x="1020" y="1990" as="targetPoint" />
          </mxGeometry>
        </mxCell>
        <mxCell id="w9EJP6OK26-klk4q5sA6-1" value="&lt;h2&gt;Airplane&lt;/h2&gt;" style="rounded=0;whiteSpace=wrap;html=1;" parent="1" vertex="1">
          <mxGeometry x="1100" y="1970" width="200" height="40" as="geometry" />
        </mxCell>
        <mxCell id="w9EJP6OK26-klk4q5sA6-9" style="edgeStyle=orthogonalEdgeStyle;rounded=0;orthogonalLoop=1;jettySize=auto;html=1;exitX=0.5;exitY=0;exitDx=0;exitDy=0;startArrow=none;startFill=0;endArrow=none;endFill=0;strokeColor=#000000;entryX=0.5;entryY=1;entryDx=0;entryDy=0;" parent="1" source="w9EJP6OK26-klk4q5sA6-6" target="w9EJP6OK26-klk4q5sA6-10" edge="1">
          <mxGeometry relative="1" as="geometry">
            <mxPoint x="1200" y="1160" as="targetPoint" />
          </mxGeometry>
        </mxCell>
        <mxCell id="w9EJP6OK26-klk4q5sA6-6" value="&lt;h2&gt;Of_Type&lt;/h2&gt;" style="rhombus;whiteSpace=wrap;html=1;" parent="1" vertex="1">
          <mxGeometry x="1110" y="1510" width="180" height="99" as="geometry" />
        </mxCell>
        <mxCell id="w9EJP6OK26-klk4q5sA6-13" style="edgeStyle=orthogonalEdgeStyle;rounded=0;orthogonalLoop=1;jettySize=auto;html=1;exitX=0.5;exitY=0;exitDx=0;exitDy=0;startArrow=none;startFill=0;endArrow=none;endFill=0;strokeColor=#000000;entryX=0.5;entryY=1;entryDx=0;entryDy=0;" parent="1" source="w9EJP6OK26-klk4q5sA6-10" target="w9EJP6OK26-klk4q5sA6-17" edge="1">
          <mxGeometry relative="1" as="geometry">
            <mxPoint x="1200" y="940" as="targetPoint" />
          </mxGeometry>
        </mxCell>
        <mxCell id="w9EJP6OK26-klk4q5sA6-10" value="&lt;h3&gt;Plane_Type&lt;/h3&gt;" style="rounded=0;whiteSpace=wrap;html=1;fontSize=20;align=center;fontFamily=Times New Roman;" parent="1" vertex="1">
          <mxGeometry x="1100" y="1120" width="200" height="40" as="geometry" />
        </mxCell>
        <mxCell id="w9EJP6OK26-klk4q5sA6-12" value="" style="endArrow=none;html=1;strokeColor=#000000;exitX=0.75;exitY=0;exitDx=0;exitDy=0;entryX=0.5;entryY=1;entryDx=0;entryDy=0;" parent="1" source="w9EJP6OK26-klk4q5sA6-10" target="w9EJP6OK26-klk4q5sA6-15" edge="1">
          <mxGeometry width="50" height="50" relative="1" as="geometry">
            <mxPoint x="1250" y="850" as="sourcePoint" />
            <mxPoint x="1360" y="990" as="targetPoint" />
          </mxGeometry>
        </mxCell>
        <mxCell id="w9EJP6OK26-klk4q5sA6-14" value="" style="endArrow=none;html=1;strokeColor=#000000;exitX=0.25;exitY=0;exitDx=0;exitDy=0;entryX=0.5;entryY=1;entryDx=0;entryDy=0;entryPerimeter=0;" parent="1" source="w9EJP6OK26-klk4q5sA6-10" target="w9EJP6OK26-klk4q5sA6-18" edge="1">
          <mxGeometry width="50" height="50" relative="1" as="geometry">
            <mxPoint x="1250" y="850" as="sourcePoint" />
            <mxPoint x="1040" y="1000" as="targetPoint" />
          </mxGeometry>
        </mxCell>
        <mxCell id="w9EJP6OK26-klk4q5sA6-15" value="&lt;h2&gt;Weight&lt;/h2&gt;" style="ellipse;whiteSpace=wrap;html=1;" parent="1" vertex="1">
          <mxGeometry x="1290" y="930" width="140" height="70" as="geometry" />
        </mxCell>
        <mxCell id="w9EJP6OK26-klk4q5sA6-17" value="&lt;h2&gt;Capacity&amp;nbsp;&lt;/h2&gt;" style="ellipse;whiteSpace=wrap;html=1;" parent="1" vertex="1">
          <mxGeometry x="1130" y="880" width="140" height="70" as="geometry" />
        </mxCell>
        <mxCell id="w9EJP6OK26-klk4q5sA6-18" value="&lt;h2 style=&quot;font-size: 24px&quot;&gt;&lt;span style=&quot;font-weight: 400&quot;&gt;&lt;span&gt;Model&lt;/span&gt;&lt;/span&gt;&lt;/h2&gt;" style="ellipse;whiteSpace=wrap;html=1;fontFamily=Helvetica;fontStyle=4" parent="1" vertex="1">
          <mxGeometry x="970" y="930" width="140" height="70" as="geometry" />
        </mxCell>
        <mxCell id="w9EJP6OK26-klk4q5sA6-19" value="" style="endArrow=none;html=1;strokeColor=#000000;exitX=1;exitY=0.25;exitDx=0;exitDy=0;entryX=0;entryY=0.5;entryDx=0;entryDy=0;" parent="1" source="w9EJP6OK26-klk4q5sA6-10" target="w9EJP6OK26-klk4q5sA6-24" edge="1">
          <mxGeometry width="50" height="50" relative="1" as="geometry">
            <mxPoint x="1250" y="1140" as="sourcePoint" />
            <mxPoint x="1800" y="920" as="targetPoint" />
          </mxGeometry>
        </mxCell>
        <mxCell id="w9EJP6OK26-klk4q5sA6-25" style="edgeStyle=orthogonalEdgeStyle;rounded=0;orthogonalLoop=1;jettySize=auto;html=1;exitX=1;exitY=0.5;exitDx=0;exitDy=0;startArrow=none;startFill=0;endArrow=none;endFill=0;strokeColor=#000000;entryX=0;entryY=0.5;entryDx=0;entryDy=0;" parent="1" source="w9EJP6OK26-klk4q5sA6-24" target="w9EJP6OK26-klk4q5sA6-38" edge="1">
          <mxGeometry relative="1" as="geometry">
            <mxPoint x="2360" y="910" as="targetPoint" />
          </mxGeometry>
        </mxCell>
        <mxCell id="w9EJP6OK26-klk4q5sA6-24" value="&lt;h2&gt;Works_on&lt;/h2&gt;" style="rhombus;whiteSpace=wrap;html=1;" parent="1" vertex="1">
          <mxGeometry x="1910" y="870" width="220" height="80" as="geometry" />
        </mxCell>
        <mxCell id="w9EJP6OK26-klk4q5sA6-27" value="" style="endArrow=none;html=1;strokeColor=#000000;exitX=1;exitY=0.75;exitDx=0;exitDy=0;entryX=0;entryY=0.5;entryDx=0;entryDy=0;entryPerimeter=0;" parent="1" source="w9EJP6OK26-klk4q5sA6-10" target="w9EJP6OK26-klk4q5sA6-28" edge="1">
          <mxGeometry width="50" height="50" relative="1" as="geometry">
            <mxPoint x="1820" y="1140" as="sourcePoint" />
            <mxPoint x="1600" y="1320" as="targetPoint" />
          </mxGeometry>
        </mxCell>
        <mxCell id="w9EJP6OK26-klk4q5sA6-29" style="edgeStyle=orthogonalEdgeStyle;rounded=0;orthogonalLoop=1;jettySize=auto;html=1;exitX=1;exitY=0.5;exitDx=0;exitDy=0;startArrow=none;startFill=0;endArrow=none;endFill=0;strokeColor=#000000;entryX=0;entryY=0.5;entryDx=0;entryDy=0;entryPerimeter=0;" parent="1" source="w9EJP6OK26-klk4q5sA6-28" target="w9EJP6OK26-klk4q5sA6-30" edge="1">
          <mxGeometry relative="1" as="geometry">
            <mxPoint x="2100" y="1270" as="targetPoint" />
          </mxGeometry>
        </mxCell>
        <mxCell id="w9EJP6OK26-klk4q5sA6-28" value="&lt;h2&gt;Flies&lt;/h2&gt;" style="rhombus;whiteSpace=wrap;html=1;" parent="1" vertex="1">
          <mxGeometry x="1470" y="1290" width="220" height="80" as="geometry" />
        </mxCell>
        <mxCell id="w9EJP6OK26-klk4q5sA6-34" style="edgeStyle=orthogonalEdgeStyle;rounded=0;orthogonalLoop=1;jettySize=auto;html=1;exitX=0.5;exitY=0;exitDx=0;exitDy=0;startArrow=none;startFill=0;endArrow=none;endFill=0;strokeColor=#000000;entryX=0.5;entryY=1;entryDx=0;entryDy=0;" parent="1" source="w9EJP6OK26-klk4q5sA6-30" target="w9EJP6OK26-klk4q5sA6-37" edge="1">
          <mxGeometry relative="1" as="geometry">
            <mxPoint x="1945" y="1160" as="targetPoint" />
          </mxGeometry>
        </mxCell>
        <mxCell id="w9EJP6OK26-klk4q5sA6-30" value="&lt;h2&gt;Pilot&lt;/h2&gt;" style="rounded=0;whiteSpace=wrap;html=1;direction=east;" parent="1" vertex="1">
          <mxGeometry x="1850" y="1310" width="190" height="40" as="geometry" />
        </mxCell>
        <mxCell id="w9EJP6OK26-klk4q5sA6-31" value="" style="endArrow=none;html=1;strokeColor=#000000;exitX=0.25;exitY=0;exitDx=0;exitDy=0;entryX=1;entryY=1;entryDx=0;entryDy=0;" parent="1" source="w9EJP6OK26-klk4q5sA6-30" target="w9EJP6OK26-klk4q5sA6-35" edge="1">
          <mxGeometry width="50" height="50" relative="1" as="geometry">
            <mxPoint x="1550" y="1060" as="sourcePoint" />
            <mxPoint x="1840" y="1200" as="targetPoint" />
          </mxGeometry>
        </mxCell>
        <mxCell id="w9EJP6OK26-klk4q5sA6-32" value="" style="endArrow=none;html=1;strokeColor=#000000;exitX=0.75;exitY=0;exitDx=0;exitDy=0;entryX=0;entryY=1;entryDx=0;entryDy=0;" parent="1" source="w9EJP6OK26-klk4q5sA6-30" target="w9EJP6OK26-klk4q5sA6-36" edge="1">
          <mxGeometry width="50" height="50" relative="1" as="geometry">
            <mxPoint x="1997.5" y="1310" as="sourcePoint" />
            <mxPoint x="2040" y="1200" as="targetPoint" />
          </mxGeometry>
        </mxCell>
        <mxCell id="w9EJP6OK26-klk4q5sA6-35" value="&lt;h2&gt;Lic_no.&lt;/h2&gt;" style="ellipse;whiteSpace=wrap;html=1;" parent="1" vertex="1">
          <mxGeometry x="1740" y="1150" width="120" height="60" as="geometry" />
        </mxCell>
        <mxCell id="w9EJP6OK26-klk4q5sA6-36" value="&lt;h2&gt;Salary&lt;/h2&gt;" style="ellipse;whiteSpace=wrap;html=1;" parent="1" vertex="1">
          <mxGeometry x="2020" y="1150" width="120" height="60" as="geometry" />
        </mxCell>
        <mxCell id="w9EJP6OK26-klk4q5sA6-37" value="&lt;h2&gt;Airborne_Time&lt;/h2&gt;" style="ellipse;whiteSpace=wrap;html=1;" parent="1" vertex="1">
          <mxGeometry x="1865" y="1100" width="160" height="60" as="geometry" />
        </mxCell>
        <mxCell id="w9EJP6OK26-klk4q5sA6-38" value="&lt;h2&gt;Employee&lt;/h2&gt;" style="rounded=0;whiteSpace=wrap;html=1;" parent="1" vertex="1">
          <mxGeometry x="2320" y="890" width="180" height="40" as="geometry" />
        </mxCell>
        <mxCell id="w9EJP6OK26-klk4q5sA6-39" style="edgeStyle=orthogonalEdgeStyle;rounded=0;orthogonalLoop=1;jettySize=auto;html=1;exitX=0.5;exitY=0;exitDx=0;exitDy=0;startArrow=none;startFill=0;endArrow=none;endFill=0;strokeColor=#000000;entryX=0.5;entryY=1;entryDx=0;entryDy=0;" parent="1" source="w9EJP6OK26-klk4q5sA6-38" target="w9EJP6OK26-klk4q5sA6-44" edge="1">
          <mxGeometry relative="1" as="geometry">
            <mxPoint x="2450" y="740" as="targetPoint" />
            <mxPoint x="2450" y="890" as="sourcePoint" />
            <Array as="points" />
          </mxGeometry>
        </mxCell>
        <mxCell id="w9EJP6OK26-klk4q5sA6-40" value="" style="endArrow=none;html=1;strokeColor=#000000;exitX=0.25;exitY=0;exitDx=0;exitDy=0;entryX=1;entryY=1;entryDx=0;entryDy=0;" parent="1" source="w9EJP6OK26-klk4q5sA6-38" target="w9EJP6OK26-klk4q5sA6-42" edge="1">
          <mxGeometry width="50" height="50" relative="1" as="geometry">
            <mxPoint x="2407.5" y="890" as="sourcePoint" />
            <mxPoint x="2350" y="780" as="targetPoint" />
          </mxGeometry>
        </mxCell>
        <mxCell id="w9EJP6OK26-klk4q5sA6-41" value="" style="endArrow=none;html=1;strokeColor=#000000;exitX=0.75;exitY=0;exitDx=0;exitDy=0;entryX=0;entryY=1;entryDx=0;entryDy=0;" parent="1" source="w9EJP6OK26-klk4q5sA6-38" target="w9EJP6OK26-klk4q5sA6-43" edge="1">
          <mxGeometry width="50" height="50" relative="1" as="geometry">
            <mxPoint x="2502.5" y="890" as="sourcePoint" />
            <mxPoint x="2550" y="780" as="targetPoint" />
          </mxGeometry>
        </mxCell>
        <mxCell id="w9EJP6OK26-klk4q5sA6-42" value="&lt;h2&gt;ID_no.&lt;/h2&gt;" style="ellipse;whiteSpace=wrap;html=1;" parent="1" vertex="1">
          <mxGeometry x="2230" y="730" width="120" height="60" as="geometry" />
        </mxCell>
        <mxCell id="w9EJP6OK26-klk4q5sA6-43" value="&lt;h2&gt;Shift&lt;/h2&gt;" style="ellipse;whiteSpace=wrap;html=1;" parent="1" vertex="1">
          <mxGeometry x="2470" y="730" width="120" height="60" as="geometry" />
        </mxCell>
        <mxCell id="w9EJP6OK26-klk4q5sA6-44" value="&lt;h2&gt;Salary&lt;/h2&gt;" style="ellipse;whiteSpace=wrap;html=1;" parent="1" vertex="1">
          <mxGeometry x="2350" y="680" width="120" height="60" as="geometry" />
        </mxCell>
        <mxCell id="w9EJP6OK26-klk4q5sA6-47" style="edgeStyle=orthogonalEdgeStyle;rounded=0;orthogonalLoop=1;jettySize=auto;html=1;startArrow=none;startFill=0;endArrow=none;endFill=0;strokeColor=#000000;shape=link;strokeWidth=2;exitX=0.5;exitY=0;exitDx=0;exitDy=0;" parent="1" source="w9EJP6OK26-klk4q5sA6-46" edge="1">
          <mxGeometry relative="1" as="geometry">
            <mxPoint x="2010" y="1770" as="targetPoint" />
            <mxPoint x="2010" y="1890" as="sourcePoint" />
          </mxGeometry>
        </mxCell>
        <mxCell id="w9EJP6OK26-klk4q5sA6-46" value="&lt;h2&gt;Plane_Service&lt;/h2&gt;" style="shape=rhombus;double=1;perimeter=rhombusPerimeter;whiteSpace=wrap;html=1;align=center;spacing=11;strokeWidth=3;perimeterSpacing=2;rounded=0;shadow=0;sketch=0;gradientColor=#ffffff;rotation=0;" parent="1" vertex="1">
          <mxGeometry x="1870" y="1899" width="280" height="181" as="geometry" />
        </mxCell>
        <mxCell id="w9EJP6OK26-klk4q5sA6-50" value="" style="edgeStyle=orthogonalEdgeStyle;shape=link;rounded=0;orthogonalLoop=1;jettySize=auto;html=1;startArrow=none;startFill=0;endArrow=none;endFill=0;strokeColor=#000000;strokeWidth=2;exitX=0.5;exitY=1;exitDx=0;exitDy=0;entryX=0.5;entryY=0;entryDx=0;entryDy=0;" parent="1" source="w9EJP6OK26-klk4q5sA6-48" target="w9EJP6OK26-klk4q5sA6-46" edge="1">
          <mxGeometry relative="1" as="geometry" />
        </mxCell>
        <mxCell id="w9EJP6OK26-klk4q5sA6-52" style="edgeStyle=orthogonalEdgeStyle;rounded=0;orthogonalLoop=1;jettySize=auto;html=1;exitX=0.5;exitY=0;exitDx=0;exitDy=0;startArrow=none;startFill=0;endArrow=none;endFill=0;strokeColor=#000000;strokeWidth=1;entryX=0.5;entryY=1;entryDx=0;entryDy=0;" parent="1" source="w9EJP6OK26-klk4q5sA6-48" target="w9EJP6OK26-klk4q5sA6-57" edge="1">
          <mxGeometry relative="1" as="geometry">
            <mxPoint x="2010" y="1570" as="targetPoint" />
          </mxGeometry>
        </mxCell>
        <mxCell id="w9EJP6OK26-klk4q5sA6-58" style="edgeStyle=orthogonalEdgeStyle;rounded=0;orthogonalLoop=1;jettySize=auto;html=1;exitX=1;exitY=0.5;exitDx=0;exitDy=0;startArrow=none;startFill=0;endArrow=none;endFill=0;strokeColor=#000000;strokeWidth=1;jumpSize=0;entryX=0.5;entryY=1;entryDx=0;entryDy=0;" parent="1" source="w9EJP6OK26-klk4q5sA6-48" target="w9EJP6OK26-klk4q5sA6-67" edge="1">
          <mxGeometry relative="1" as="geometry">
            <mxPoint x="2450" y="1460" as="targetPoint" />
            <Array as="points">
              <mxPoint x="2410" y="1770" />
            </Array>
          </mxGeometry>
        </mxCell>
        <mxCell id="w9EJP6OK26-klk4q5sA6-48" value="&lt;h2&gt;Service&lt;/h2&gt;" style="shape=ext;margin=3;double=1;whiteSpace=wrap;html=1;align=center;rounded=0;shadow=0;sketch=0;strokeWidth=2;gradientColor=#ffffff;" parent="1" vertex="1">
          <mxGeometry x="1930" y="1740" width="160" height="60" as="geometry" />
        </mxCell>
        <mxCell id="w9EJP6OK26-klk4q5sA6-53" style="rounded=0;orthogonalLoop=1;jettySize=auto;html=1;exitX=0.25;exitY=0;exitDx=0;exitDy=0;startArrow=none;startFill=0;endArrow=none;endFill=0;strokeColor=#000000;strokeWidth=1;entryX=0.5;entryY=1;entryDx=0;entryDy=0;" parent="1" source="w9EJP6OK26-klk4q5sA6-48" target="w9EJP6OK26-klk4q5sA6-55" edge="1">
          <mxGeometry relative="1" as="geometry">
            <mxPoint x="1840" y="1600" as="targetPoint" />
            <mxPoint x="2020" y="1750" as="sourcePoint" />
          </mxGeometry>
        </mxCell>
        <mxCell id="w9EJP6OK26-klk4q5sA6-54" style="rounded=0;orthogonalLoop=1;jettySize=auto;html=1;exitX=0.75;exitY=0;exitDx=0;exitDy=0;startArrow=none;startFill=0;endArrow=none;endFill=0;strokeColor=#000000;strokeWidth=1;entryX=0.5;entryY=1;entryDx=0;entryDy=0;" parent="1" source="w9EJP6OK26-klk4q5sA6-48" target="w9EJP6OK26-klk4q5sA6-56" edge="1">
          <mxGeometry relative="1" as="geometry">
            <mxPoint x="2170" y="1600" as="targetPoint" />
            <mxPoint x="2030" y="1760" as="sourcePoint" />
          </mxGeometry>
        </mxCell>
        <mxCell id="w9EJP6OK26-klk4q5sA6-55" value="&lt;h2&gt;Date&lt;/h2&gt;" style="ellipse;whiteSpace=wrap;html=1;" parent="1" vertex="1">
          <mxGeometry x="1830" y="1570" width="120" height="60" as="geometry" />
        </mxCell>
        <mxCell id="w9EJP6OK26-klk4q5sA6-56" value="&lt;h2&gt;Hours&lt;/h2&gt;" style="ellipse;whiteSpace=wrap;html=1;" parent="1" vertex="1">
          <mxGeometry x="2070" y="1570" width="120" height="60" as="geometry" />
        </mxCell>
        <mxCell id="w9EJP6OK26-klk4q5sA6-57" value="&lt;h2&gt;Workcode&lt;/h2&gt;" style="ellipse;whiteSpace=wrap;html=1;" parent="1" vertex="1">
          <mxGeometry x="1930" y="1510" width="160" height="60" as="geometry" />
        </mxCell>
        <mxCell id="w9EJP6OK26-klk4q5sA6-68" style="edgeStyle=elbowEdgeStyle;rounded=0;jumpSize=0;orthogonalLoop=1;jettySize=auto;html=1;exitX=0.5;exitY=0;exitDx=0;exitDy=0;entryX=0.5;entryY=1;entryDx=0;entryDy=0;startArrow=none;startFill=0;endArrow=none;endFill=0;strokeColor=#000000;strokeWidth=1;" parent="1" source="w9EJP6OK26-klk4q5sA6-67" target="w9EJP6OK26-klk4q5sA6-38" edge="1">
          <mxGeometry relative="1" as="geometry" />
        </mxCell>
        <mxCell id="w9EJP6OK26-klk4q5sA6-67" value="&lt;h2&gt;Maintain&lt;/h2&gt;" style="rhombus;whiteSpace=wrap;html=1;" parent="1" vertex="1">
          <mxGeometry x="2320" y="1490" width="180" height="99" as="geometry" />
        </mxCell>
        <mxCell id="w9EJP6OK26-klk4q5sA6-72" style="edgeStyle=orthogonalEdgeStyle;rounded=0;orthogonalLoop=1;jettySize=auto;html=1;exitX=0.5;exitY=0;exitDx=0;exitDy=0;startArrow=none;startFill=0;endArrow=none;endFill=0;strokeColor=#000000;entryX=0.5;entryY=1;entryDx=0;entryDy=0;" parent="1" source="w9EJP6OK26-klk4q5sA6-73" target="w9EJP6OK26-klk4q5sA6-77" edge="1">
          <mxGeometry relative="1" as="geometry">
            <mxPoint x="600" y="2469" as="targetPoint" />
          </mxGeometry>
        </mxCell>
        <mxCell id="w9EJP6OK26-klk4q5sA6-73" value="&lt;h2&gt;Hangar&lt;/h2&gt;" style="rounded=0;whiteSpace=wrap;html=1;direction=west;" parent="1" vertex="1">
          <mxGeometry x="1100" y="2530" width="200" height="40" as="geometry" />
        </mxCell>
        <mxCell id="w9EJP6OK26-klk4q5sA6-74" value="" style="endArrow=none;html=1;strokeColor=#000000;exitX=0.75;exitY=0;exitDx=0;exitDy=0;entryX=0.5;entryY=1;entryDx=0;entryDy=0;" parent="1" source="w9EJP6OK26-klk4q5sA6-73" target="w9EJP6OK26-klk4q5sA6-76" edge="1">
          <mxGeometry width="50" height="50" relative="1" as="geometry">
            <mxPoint x="1100" y="2280" as="sourcePoint" />
            <mxPoint x="1210" y="2420" as="targetPoint" />
          </mxGeometry>
        </mxCell>
        <mxCell id="w9EJP6OK26-klk4q5sA6-75" value="" style="endArrow=none;html=1;strokeColor=#000000;exitX=0.25;exitY=0;exitDx=0;exitDy=0;entryX=0.5;entryY=1;entryDx=0;entryDy=0;" parent="1" source="w9EJP6OK26-klk4q5sA6-73" target="w9EJP6OK26-klk4q5sA6-85" edge="1">
          <mxGeometry width="50" height="50" relative="1" as="geometry">
            <mxPoint x="650" y="2379" as="sourcePoint" />
            <mxPoint x="440" y="2529" as="targetPoint" />
          </mxGeometry>
        </mxCell>
        <mxCell id="w9EJP6OK26-klk4q5sA6-76" value="&lt;h2 style=&quot;font-size: 20px;&quot;&gt;Number&lt;/h2&gt;" style="ellipse;whiteSpace=wrap;html=1;direction=west;fontStyle=4;fontFamily=Helvetica;fontSize=20;" parent="1" vertex="1">
          <mxGeometry x="1000" y="2700" width="140" height="70" as="geometry" />
        </mxCell>
        <mxCell id="w9EJP6OK26-klk4q5sA6-77" value="" style="ellipse;whiteSpace=wrap;html=1;direction=west;" parent="1" vertex="1">
          <mxGeometry x="1130" y="2760" width="140" height="70" as="geometry" />
        </mxCell>
        <mxCell id="w9EJP6OK26-klk4q5sA6-88" style="edgeStyle=elbowEdgeStyle;rounded=0;jumpSize=0;orthogonalLoop=1;jettySize=auto;html=1;exitX=0.5;exitY=1;exitDx=0;exitDy=0;startArrow=none;startFill=0;endArrow=none;endFill=0;strokeColor=#000000;strokeWidth=1;entryX=0.5;entryY=1;entryDx=0;entryDy=0;" parent="1" source="w9EJP6OK26-klk4q5sA6-80" target="w9EJP6OK26-klk4q5sA6-73" edge="1">
          <mxGeometry relative="1" as="geometry">
            <mxPoint x="1200" y="2760" as="targetPoint" />
          </mxGeometry>
        </mxCell>
        <mxCell id="w9EJP6OK26-klk4q5sA6-80" value="&lt;h2&gt;Stored_In&lt;/h2&gt;" style="rhombus;whiteSpace=wrap;html=1;direction=east;" parent="1" vertex="1">
          <mxGeometry x="1110" y="2190" width="180" height="99" as="geometry" />
        </mxCell>
        <mxCell id="w9EJP6OK26-klk4q5sA6-85" value="dasd" style="ellipse;whiteSpace=wrap;html=1;direction=west;" parent="1" vertex="1">
          <mxGeometry x="1260" y="2700" width="140" height="70" as="geometry" />
        </mxCell>
        <mxCell id="w9EJP6OK26-klk4q5sA6-96" style="edgeStyle=none;rounded=0;jumpSize=0;orthogonalLoop=1;jettySize=auto;html=1;exitX=0.5;exitY=0;exitDx=0;exitDy=0;startArrow=none;startFill=0;endArrow=none;endFill=0;strokeColor=#000000;strokeWidth=1;entryX=0.5;entryY=1;entryDx=0;entryDy=0;" parent="1" source="w9EJP6OK26-klk4q5sA6-95" target="w9EJP6OK26-klk4q5sA6-99" edge="1">
          <mxGeometry relative="1" as="geometry">
            <mxPoint x="1770" y="2210" as="targetPoint" />
          </mxGeometry>
        </mxCell>
        <mxCell id="w9EJP6OK26-klk4q5sA6-97" style="edgeStyle=none;rounded=0;jumpSize=0;orthogonalLoop=1;jettySize=auto;html=1;exitX=1;exitY=0.5;exitDx=0;exitDy=0;startArrow=none;startFill=0;endArrow=none;endFill=0;strokeColor=#000000;strokeWidth=1;entryX=0;entryY=0.5;entryDx=0;entryDy=0;" parent="1" source="w9EJP6OK26-klk4q5sA6-95" target="w9EJP6OK26-klk4q5sA6-98" edge="1">
          <mxGeometry relative="1" as="geometry">
            <mxPoint x="2210" y="2180" as="targetPoint" />
          </mxGeometry>
        </mxCell>
        <mxCell id="w9EJP6OK26-klk4q5sA6-95" value="&lt;h2&gt;Owns&lt;/h2&gt;" style="rhombus;whiteSpace=wrap;html=1;direction=east;" parent="1" vertex="1">
          <mxGeometry x="1680" y="2330" width="180" height="99" as="geometry" />
        </mxCell>
        <mxCell id="w9EJP6OK26-klk4q5sA6-101" style="edgeStyle=none;rounded=0;jumpSize=0;orthogonalLoop=1;jettySize=auto;html=1;exitX=0.5;exitY=1;exitDx=0;exitDy=0;startArrow=none;startFill=0;endArrow=none;endFill=0;strokeColor=#000000;strokeWidth=1;entryX=0.5;entryY=0;entryDx=0;entryDy=0;" parent="1" source="w9EJP6OK26-klk4q5sA6-98" target="w9EJP6OK26-klk4q5sA6-102" edge="1">
          <mxGeometry relative="1" as="geometry">
            <mxPoint x="2321" y="2310" as="targetPoint" />
          </mxGeometry>
        </mxCell>
        <mxCell id="w9EJP6OK26-klk4q5sA6-98" value="&lt;h2&gt;Owner&lt;/h2&gt;" style="whiteSpace=wrap;html=1;align=center;rounded=0;shadow=0;sketch=0;strokeWidth=2;gradientColor=#ffffff;" parent="1" vertex="1">
          <mxGeometry x="2241" y="2140" width="159" height="40" as="geometry" />
        </mxCell>
        <mxCell id="w9EJP6OK26-klk4q5sA6-100" value="" style="edgeStyle=none;rounded=0;jumpSize=0;orthogonalLoop=1;jettySize=auto;html=1;startArrow=none;startFill=0;endArrow=none;endFill=0;strokeColor=#000000;strokeWidth=1;" parent="1" source="w9EJP6OK26-klk4q5sA6-99" target="w9EJP6OK26-klk4q5sA6-95" edge="1">
          <mxGeometry relative="1" as="geometry" />
        </mxCell>
        <mxCell id="w9EJP6OK26-klk4q5sA6-99" value="&lt;h2&gt;P_Date&lt;/h2&gt;" style="ellipse;whiteSpace=wrap;html=1;align=center;rounded=0;shadow=0;sketch=0;strokeWidth=2;gradientColor=#ffffff;" parent="1" vertex="1">
          <mxGeometry x="1695" y="2160" width="150" height="70" as="geometry" />
        </mxCell>
        <mxCell id="w9EJP6OK26-klk4q5sA6-102" value="&lt;h2&gt;d&lt;/h2&gt;" style="ellipse;whiteSpace=wrap;html=1;aspect=fixed;rounded=0;shadow=0;sketch=0;strokeWidth=1;gradientColor=#ffffff;" parent="1" vertex="1">
          <mxGeometry x="2301" y="2310" width="40" height="40" as="geometry" />
        </mxCell>
        <mxCell id="w9EJP6OK26-klk4q5sA6-103" value="" style="endArrow=none;html=1;strokeColor=#000000;strokeWidth=1;entryX=1;entryY=1;entryDx=0;entryDy=0;exitX=0.25;exitY=0;exitDx=0;exitDy=0;" parent="1" source="w9EJP6OK26-klk4q5sA6-107" target="w9EJP6OK26-klk4q5sA6-102" edge="1">
          <mxGeometry width="50" height="50" relative="1" as="geometry">
            <mxPoint x="2440" y="2480" as="sourcePoint" />
            <mxPoint x="2160" y="2440" as="targetPoint" />
          </mxGeometry>
        </mxCell>
        <mxCell id="w9EJP6OK26-klk4q5sA6-104" value="" style="endArrow=none;html=1;strokeColor=#000000;strokeWidth=1;entryX=0;entryY=1;entryDx=0;entryDy=0;exitX=0.794;exitY=0;exitDx=0;exitDy=0;exitPerimeter=0;" parent="1" source="w9EJP6OK26-klk4q5sA6-106" target="w9EJP6OK26-klk4q5sA6-102" edge="1">
          <mxGeometry width="50" height="50" relative="1" as="geometry">
            <mxPoint x="2200" y="2480" as="sourcePoint" />
            <mxPoint x="2210" y="2470" as="targetPoint" />
          </mxGeometry>
        </mxCell>
        <mxCell id="w9EJP6OK26-klk4q5sA6-106" value="&lt;h2&gt;Corporation&lt;/h2&gt;" style="whiteSpace=wrap;html=1;align=center;rounded=0;shadow=0;sketch=0;strokeWidth=1;gradientColor=#ffffff;" parent="1" vertex="1">
          <mxGeometry x="2005" y="2480" width="180" height="40" as="geometry" />
        </mxCell>
        <mxCell id="w9EJP6OK26-klk4q5sA6-139" style="edgeStyle=elbowEdgeStyle;rounded=0;jumpSize=30;orthogonalLoop=1;jettySize=auto;html=1;exitX=0.5;exitY=0;exitDx=0;exitDy=0;startArrow=none;startFill=0;endArrow=none;endFill=0;strokeColor=#000000;strokeWidth=1;entryX=1;entryY=0.5;entryDx=0;entryDy=0;jumpStyle=arc;" parent="1" source="w9EJP6OK26-klk4q5sA6-107" target="w9EJP6OK26-klk4q5sA6-30" edge="1">
          <mxGeometry relative="1" as="geometry">
            <mxPoint x="2550" y="1320" as="targetPoint" />
            <Array as="points">
              <mxPoint x="2550" y="1940" />
            </Array>
          </mxGeometry>
        </mxCell>
        <mxCell id="w9EJP6OK26-klk4q5sA6-140" style="edgeStyle=elbowEdgeStyle;rounded=0;jumpStyle=arc;jumpSize=30;orthogonalLoop=1;jettySize=auto;html=1;exitX=0.75;exitY=0;exitDx=0;exitDy=0;startArrow=none;startFill=0;endArrow=none;endFill=0;strokeColor=#000000;strokeWidth=1;entryX=1;entryY=0.5;entryDx=0;entryDy=0;" parent="1" source="w9EJP6OK26-klk4q5sA6-107" target="w9EJP6OK26-klk4q5sA6-38" edge="1">
          <mxGeometry relative="1" as="geometry">
            <mxPoint x="2600" y="896.6666666666666" as="targetPoint" />
            <Array as="points">
              <mxPoint x="2595" y="2420" />
              <mxPoint x="2610" y="1170" />
            </Array>
          </mxGeometry>
        </mxCell>
        <mxCell id="w9EJP6OK26-klk4q5sA6-107" value="&lt;h2&gt;Person&lt;/h2&gt;" style="whiteSpace=wrap;html=1;align=center;rounded=0;shadow=0;sketch=0;strokeWidth=1;gradientColor=#ffffff;" parent="1" vertex="1">
          <mxGeometry x="2460" y="2480" width="180" height="40" as="geometry" />
        </mxCell>
        <mxCell id="w9EJP6OK26-klk4q5sA6-108" value="dasd" style="ellipse;whiteSpace=wrap;html=1;direction=west;" parent="1" vertex="1">
          <mxGeometry x="1260" y="2700" width="140" height="70" as="geometry" />
        </mxCell>
        <mxCell id="w9EJP6OK26-klk4q5sA6-109" value="dasd" style="ellipse;whiteSpace=wrap;html=1;direction=west;" parent="1" vertex="1">
          <mxGeometry x="1260" y="2700" width="140" height="70" as="geometry" />
        </mxCell>
        <mxCell id="w9EJP6OK26-klk4q5sA6-110" value="" style="ellipse;whiteSpace=wrap;html=1;direction=west;" parent="1" vertex="1">
          <mxGeometry x="1130" y="2760" width="140" height="70" as="geometry" />
        </mxCell>
        <mxCell id="w9EJP6OK26-klk4q5sA6-112" value="&lt;h2&gt;Location&lt;/h2&gt;" style="ellipse;whiteSpace=wrap;html=1;direction=west;" parent="1" vertex="1">
          <mxGeometry x="1260" y="2700" width="140" height="70" as="geometry" />
        </mxCell>
        <mxCell id="w9EJP6OK26-klk4q5sA6-113" value="&lt;h2&gt;Capacity&lt;/h2&gt;" style="ellipse;whiteSpace=wrap;html=1;direction=west;" parent="1" vertex="1">
          <mxGeometry x="1130" y="2760" width="140" height="70" as="geometry" />
        </mxCell>
        <mxCell id="w9EJP6OK26-klk4q5sA6-122" value="" style="endArrow=none;html=1;strokeColor=#000000;exitX=0.75;exitY=1;exitDx=0;exitDy=0;entryX=0.5;entryY=1;entryDx=0;entryDy=0;" parent="1" source="w9EJP6OK26-klk4q5sA6-106" target="w9EJP6OK26-klk4q5sA6-125" edge="1">
          <mxGeometry width="50" height="50" relative="1" as="geometry">
            <mxPoint x="2145" y="2520" as="sourcePoint" />
            <mxPoint x="2225" y="2650" as="targetPoint" />
          </mxGeometry>
        </mxCell>
        <mxCell id="w9EJP6OK26-klk4q5sA6-125" value="&lt;h2&gt;Address&lt;/h2&gt;" style="ellipse;whiteSpace=wrap;html=1;direction=west;" parent="1" vertex="1">
          <mxGeometry x="2120" y="2650" width="140" height="70" as="geometry" />
        </mxCell>
        <mxCell id="w9EJP6OK26-klk4q5sA6-127" value="" style="endArrow=none;html=1;strokeColor=#000000;exitX=0.25;exitY=1;exitDx=0;exitDy=0;entryX=0.5;entryY=1;entryDx=0;entryDy=0;" parent="1" source="w9EJP6OK26-klk4q5sA6-106" target="3dXol6B9vm6eM1kzfWd5-1" edge="1">
          <mxGeometry width="50" height="50" relative="1" as="geometry">
            <mxPoint x="2045" y="2520" as="sourcePoint" />
            <mxPoint x="1965" y="2650" as="targetPoint" />
          </mxGeometry>
        </mxCell>
        <mxCell id="w9EJP6OK26-klk4q5sA6-131" value="&lt;h2&gt;Address&lt;/h2&gt;" style="ellipse;whiteSpace=wrap;html=1;direction=west;" parent="1" vertex="1">
          <mxGeometry x="2370" y="2650" width="140" height="70" as="geometry" />
        </mxCell>
        <mxCell id="w9EJP6OK26-klk4q5sA6-132" style="rounded=0;orthogonalLoop=1;jettySize=auto;html=1;startArrow=none;startFill=0;endArrow=none;endFill=0;strokeColor=#000000;entryX=0.5;entryY=1;entryDx=0;entryDy=0;exitX=0.25;exitY=1;exitDx=0;exitDy=0;" parent="1" source="w9EJP6OK26-klk4q5sA6-107" target="w9EJP6OK26-klk4q5sA6-131" edge="1">
          <mxGeometry relative="1" as="geometry">
            <mxPoint x="1950" y="2179" as="targetPoint" />
            <mxPoint x="2550" y="2540" as="sourcePoint" />
          </mxGeometry>
        </mxCell>
        <mxCell id="w9EJP6OK26-klk4q5sA6-141" value="" style="endArrow=none;html=1;strokeColor=#000000;exitX=0.75;exitY=1;exitDx=0;exitDy=0;entryX=0.5;entryY=1;entryDx=0;entryDy=0;" parent="1" source="w9EJP6OK26-klk4q5sA6-107" target="w9EJP6OK26-klk4q5sA6-142" edge="1">
          <mxGeometry width="50" height="50" relative="1" as="geometry">
            <mxPoint x="2690" y="2460" as="sourcePoint" />
            <mxPoint x="2805" y="2560" as="targetPoint" />
          </mxGeometry>
        </mxCell>
        <mxCell id="w9EJP6OK26-klk4q5sA6-142" value="&lt;h2&gt;Name&lt;/h2&gt;" style="ellipse;whiteSpace=wrap;html=1;direction=west;" parent="1" vertex="1">
          <mxGeometry x="2610" y="2650" width="140" height="70" as="geometry" />
        </mxCell>
        <mxCell id="w9EJP6OK26-klk4q5sA6-145" value="&lt;u&gt;Reg_no.#&lt;/u&gt;" style="ellipse;whiteSpace=wrap;html=1;rounded=0;shadow=0;sketch=0;strokeWidth=1;gradientColor=#ffffff;fontFamily=Times New Roman;fontSize=20;" parent="1" vertex="1">
          <mxGeometry x="910" y="1960" width="110" height="60" as="geometry" />
        </mxCell>
        <mxCell id="w9EJP6OK26-klk4q5sA6-146" value="&lt;h3&gt;&amp;nbsp; 1&lt;/h3&gt;" style="text;html=1;strokeColor=none;fillColor=none;align=center;verticalAlign=middle;whiteSpace=wrap;rounded=0;shadow=0;sketch=0;fontFamily=Helvetica;fontSize=20;" parent="1" vertex="1">
          <mxGeometry x="1148" y="1482" width="40" height="20" as="geometry" />
        </mxCell>
        <mxCell id="w9EJP6OK26-klk4q5sA6-147" value="&lt;h3&gt;N&lt;/h3&gt;" style="text;html=1;strokeColor=none;fillColor=none;align=center;verticalAlign=middle;whiteSpace=wrap;rounded=0;shadow=0;sketch=0;fontFamily=Helvetica;fontSize=20;" parent="1" vertex="1">
          <mxGeometry x="1155" y="1608" width="40" height="20" as="geometry" />
        </mxCell>
        <mxCell id="w9EJP6OK26-klk4q5sA6-148" value="&lt;h3&gt;N&lt;/h3&gt;" style="text;html=1;strokeColor=none;fillColor=none;align=center;verticalAlign=middle;whiteSpace=wrap;rounded=0;shadow=0;sketch=0;fontFamily=Helvetica;fontSize=20;" parent="1" vertex="1">
          <mxGeometry x="1155" y="2170" width="40" height="20" as="geometry" />
        </mxCell>
        <mxCell id="w9EJP6OK26-klk4q5sA6-150" value="&lt;h3&gt;&amp;nbsp; 1&lt;/h3&gt;" style="text;html=1;strokeColor=none;fillColor=none;align=center;verticalAlign=middle;whiteSpace=wrap;rounded=0;shadow=0;sketch=0;fontFamily=Helvetica;fontSize=20;" parent="1" vertex="1">
          <mxGeometry x="1148" y="2300" width="40" height="20" as="geometry" />
        </mxCell>
        <mxCell id="w9EJP6OK26-klk4q5sA6-151" value="&lt;h3&gt;M&lt;/h3&gt;" style="text;html=1;strokeColor=none;fillColor=none;align=center;verticalAlign=middle;whiteSpace=wrap;rounded=0;shadow=0;sketch=0;fontFamily=Helvetica;fontSize=20;" parent="1" vertex="1">
          <mxGeometry x="1650" y="2390" width="40" height="20" as="geometry" />
        </mxCell>
        <mxCell id="w9EJP6OK26-klk4q5sA6-152" value="&lt;h3&gt;N&lt;/h3&gt;" style="text;html=1;strokeColor=none;fillColor=none;align=center;verticalAlign=middle;whiteSpace=wrap;rounded=0;shadow=0;sketch=0;fontFamily=Helvetica;fontSize=20;" parent="1" vertex="1">
          <mxGeometry x="1855" y="2390" width="40" height="20" as="geometry" />
        </mxCell>
        <mxCell id="w9EJP6OK26-klk4q5sA6-153" value="&lt;h3&gt;N&lt;/h3&gt;" style="text;html=1;strokeColor=none;fillColor=none;align=center;verticalAlign=middle;whiteSpace=wrap;rounded=0;shadow=0;sketch=0;fontFamily=Helvetica;fontSize=20;" parent="1" vertex="1">
          <mxGeometry x="2025" y="1879" width="40" height="20" as="geometry" />
        </mxCell>
        <mxCell id="w9EJP6OK26-klk4q5sA6-158" value="&lt;h3&gt;N&lt;/h3&gt;" style="text;html=1;strokeColor=none;fillColor=none;align=center;verticalAlign=middle;whiteSpace=wrap;rounded=0;shadow=0;sketch=0;fontFamily=Helvetica;fontSize=20;" parent="1" vertex="1">
          <mxGeometry x="2370" y="1457" width="40" height="20" as="geometry" />
        </mxCell>
        <mxCell id="w9EJP6OK26-klk4q5sA6-159" value="&lt;h3&gt;N&lt;/h3&gt;" style="text;html=1;strokeColor=none;fillColor=none;align=center;verticalAlign=middle;whiteSpace=wrap;rounded=0;shadow=0;sketch=0;fontFamily=Helvetica;fontSize=20;" parent="1" vertex="1">
          <mxGeometry x="2112" y="868" width="40" height="20" as="geometry" />
        </mxCell>
        <mxCell id="w9EJP6OK26-klk4q5sA6-160" value="&lt;h3&gt;N&lt;/h3&gt;" style="text;html=1;strokeColor=none;fillColor=none;align=center;verticalAlign=middle;whiteSpace=wrap;rounded=0;shadow=0;sketch=0;fontFamily=Helvetica;fontSize=20;" parent="1" vertex="1">
          <mxGeometry x="1680" y="1290" width="40" height="20" as="geometry" />
        </mxCell>
        <mxCell id="w9EJP6OK26-klk4q5sA6-163" value="&lt;h3&gt;M&lt;/h3&gt;" style="text;html=1;strokeColor=none;fillColor=none;align=center;verticalAlign=middle;whiteSpace=wrap;rounded=0;shadow=0;sketch=0;fontFamily=Helvetica;fontSize=20;" parent="1" vertex="1">
          <mxGeometry x="1867" y="875" width="40" height="20" as="geometry" />
        </mxCell>
        <mxCell id="w9EJP6OK26-klk4q5sA6-164" value="&lt;h3&gt;M&lt;/h3&gt;" style="text;html=1;strokeColor=none;fillColor=none;align=center;verticalAlign=middle;whiteSpace=wrap;rounded=0;shadow=0;sketch=0;fontFamily=Helvetica;fontSize=20;" parent="1" vertex="1">
          <mxGeometry x="2370" y="1588" width="40" height="20" as="geometry" />
        </mxCell>
        <mxCell id="w9EJP6OK26-klk4q5sA6-165" value="&lt;h3&gt;M&lt;/h3&gt;" style="text;html=1;strokeColor=none;fillColor=none;align=center;verticalAlign=middle;whiteSpace=wrap;rounded=0;shadow=0;sketch=0;fontFamily=Helvetica;fontSize=20;" parent="1" vertex="1">
          <mxGeometry x="1444" y="1275" width="70" height="50" as="geometry" />
        </mxCell>
        <mxCell id="w9EJP6OK26-klk4q5sA6-166" value="&lt;h3&gt;&amp;nbsp; 1&lt;/h3&gt;" style="text;html=1;strokeColor=none;fillColor=none;align=center;verticalAlign=middle;whiteSpace=wrap;rounded=0;shadow=0;sketch=0;fontFamily=Helvetica;fontSize=20;" parent="1" vertex="1">
          <mxGeometry x="1830" y="1960" width="40" height="20" as="geometry" />
        </mxCell>
        <mxCell id="3dXol6B9vm6eM1kzfWd5-1" value="&lt;h2&gt;Name&lt;/h2&gt;" style="ellipse;whiteSpace=wrap;html=1;direction=west;" parent="1" vertex="1">
          <mxGeometry x="1910" y="2650" width="140" height="70" as="geometry" />
        </mxCell>
      </root>
    </mxGraphModel>
  </diagram>
</mxfile>
